<svg xmlns="http://www.w3.org/2000/svg" xmlns:xlink="http://www.w3.org/1999/xlink" version="1.1" width="50px" height="50px" x="0px" y="0px" viewBox="0 0 500 500" style="enable-background:new 0 0 500 500;" xml:space="preserve">
  <g>
      <path fill="#000" d="M228.1,253L213,313.3c18.7,4.6,76,23,84.5-11C306.4,266.7,246.8,257.5,228.1,253z"/>
      <path fill="#000" d="M248.8,170.5l-13.7,54.8c15.5,3.9,63.3,19.6,71-11.4C314,181.5,264.2,174.4,248.8,170.5z"/>
      <path fill="#000" d="M310.5,7.5c-134-33.4-269.5,48-303,182c-33.4,134,48,269.5,182,303s269.5-48,303-182           C525.9,176.5,444.5,41,310.5,7.5z M360.3,214.4c-3.7,24.4-17.3,36.1-35,40.4c24.7,12.8,37.2,32.6,25.3,66.5           c-14.8,42.3-50,45.9-96.8,37l-11.4,45.5l-27.4-6.8l11.2-44.8c-7.1-1.8-14.4-3.7-21.9-5.7l-11.2,45l-27.4-6.8l11.4-45.5           c-6.4-1.6-13-3.4-19.6-5l-35.8-8.9l13.7-31.3c0,0,20.3,5.3,19.9,5c7.8,1.8,11.2-3.2,12.6-6.6l18-71.9c0.9,0.2,2,0.5,2.8,0.7           c-1.1-0.4-2.1-0.7-2.8-0.9l12.8-51.4c0.4-5.9-1.8-13.2-12.8-16c0.4-0.4-19.9-5-19.9-5l7.3-29.4l37.9,9.4v0.2           c5.7,1.4,11.4,2.7,17.4,4.1l11.2-45l27.4,6.8l-11,44.1c7.5,1.6,14.8,3.4,22.1,5.2l10.9-43.9l27.4,6.8l-11.2,45           C340,163.4,365.3,181.1,360.3,214.4z"/>
  </g>
</svg>