<svg xmlns="http://www.w3.org/2000/svg" xmlns:xlink="http://www.w3.org/1999/xlink" width="50px" height="50px" viewBox="0 0 50 50" version="1.1">
    <g stroke="none" stroke-width="1" fill="none" fill-rule="evenodd" transform="translate(-528.000000, -7048.000000)">
        <g transform="translate(0.000000, 6539.000000)" fill="#000">
            <g transform="translate(192.000000, 446.000000)">
                <g transform="translate(0.000000, 63.000000)">
                    <g transform="translate(172.000000, 0.000000)">
                        <g transform="translate(164.000000, 0.000000)">
                            <path d="M25,50 C11.1928813,50 0,38.8071187 0,25 C0,11.1928813 11.1928813,0 25,0 C38.8071187,0 50,11.1928813 50,25 C50,38.8071187 38.8071187,50 25,50 Z M15.0271541,19.1343523 L15.0271541,30.4174407 C15.0965876,30.8244637 14.9682798,31.2402404 14.6815342,31.5374094 L12,34.7900843 L12,35.2190084 L19.6036391,35.2190084 L19.6036391,34.7900843 L16.9221049,31.5374094 C16.6332562,31.2407323 16.4970034,30.8276955 16.5526491,30.4174407 L16.5526491,20.659416 L23.2266897,35.2190084 L24.0013551,35.2190084 L29.7338792,20.659416 L29.7338792,32.2641976 C29.7338792,32.5739761 29.7338792,32.6335488 29.5312745,32.8360964 L27.4694726,34.8377425 L27.4694726,35.2666666 L37.4805334,35.2666666 L37.4805334,34.8377425 L35.4902392,32.8837547 C35.3145442,32.7498296 35.2273905,32.5297145 35.2637986,32.3118558 L35.2637986,17.9548109 C35.2273905,17.7369522 35.3145442,17.516837 35.4902392,17.382912 L37.5282053,15.4289242 L37.5282053,15 L30.4727909,15 L25.4434246,27.5460317 L19.7228184,15 L12.3217841,15 L12.3217841,15.4289242 L14.70537,18.3003331 C14.9393682,18.511245 15.058871,18.8209794 15.0271541,19.1343523 Z"/>
                        </g>
                    </g>
                </g>
            </g>
        </g>
    </g>
</svg>